<svg width="134" height="33" viewBox="0 0 134 33" fill="none" xmlns="http://www.w3.org/2000/svg">
<path d="M21.6223 10.0344C23.329 10.2605 25.0933 9.49465 26.1355 7.88851C27.6216 5.59655 27.0726 2.46151 24.9091 0.886076C22.7446 -0.689354 19.7836 -0.107757 18.2975 2.1842C17.2562 3.79034 17.2134 5.80965 18.0248 7.41578C18.2547 7.87176 18.2835 8.43102 18.0081 8.85629C17.6991 9.3318 17.1138 9.49278 16.5973 9.30947C13.065 8.04856 9.03193 9.35413 6.81721 12.7702C4.14 16.8963 5.12825 22.5392 9.02262 25.3746C12.0693 27.5912 15.9925 27.4348 18.8372 25.2871C19.349 24.9009 20.0395 24.8376 20.5569 25.2145C21.0147 25.5477 21.2157 26.1432 21.1859 26.7295C21.0929 28.5924 21.8894 30.461 23.4472 31.5953C25.8275 33.328 29.0835 32.6878 30.7185 30.1669C32.3544 27.6451 31.7514 24.1965 29.3702 22.4638C27.4746 21.0838 25.0226 21.2085 23.2769 22.5913C22.927 22.8677 22.4468 22.9235 22.0858 22.662C21.7061 22.3847 21.5888 21.8506 21.7666 21.4002C22.9986 18.2875 22.4785 14.6992 20.4657 12.1244C20.1186 11.6805 20.0506 11.0431 20.3596 10.5676C20.635 10.1423 21.1385 9.97016 21.6223 10.0344ZM1.44325 28.6176C2.95819 29.7203 5.03054 29.3127 6.0709 27.7084C7.11219 26.1041 6.72787 23.909 5.21293 22.8072C3.69798 21.7045 1.62657 22.1111 0.585277 23.7154C-0.455085 25.3206 -0.0716956 27.5149 1.44325 28.6176ZM39.0833 27.4516V5.11824H42.5505V14.7495H54.4961V5.11824H57.9801V27.4516H54.4961V17.8045H42.5505V27.4516H39.0833ZM70.5882 27.9169C68.8071 27.9169 67.2419 27.5549 65.8926 26.8309C64.5829 26.1249 63.4966 25.0667 62.7566 23.7759C62.0159 22.4629 61.6455 20.9433 61.6455 19.2162C61.6455 17.3858 62.0103 15.7992 62.7408 14.4545C63.4507 13.1421 64.5214 12.0604 65.8265 11.3371C67.1423 10.6029 68.674 10.2363 70.4225 10.2363C72.2464 10.2363 73.8005 10.6346 75.0846 11.4302C76.3669 12.2165 77.3235 13.3378 77.9545 14.796C78.5965 16.2542 78.8506 17.986 78.7175 19.9913H75.2503V18.8132C75.2279 16.8684 74.8297 15.4316 74.0554 14.501C73.2924 13.5705 72.1255 13.1052 70.5547 13.1052C68.8183 13.1052 67.5136 13.617 66.6398 14.6406C65.7651 15.6642 65.3287 17.1438 65.3287 19.0766C65.3287 20.9172 65.766 22.3438 66.6398 23.3571C67.5136 24.3603 68.7745 24.8618 70.4225 24.8618C71.5057 24.8618 72.4409 24.6339 73.2263 24.1788C74.0219 23.7135 74.6417 23.0528 75.0837 22.1939L78.4858 23.2017C77.8195 24.6673 76.7112 25.8875 75.3163 26.6913C73.901 27.5083 72.3246 27.9169 70.5882 27.9169ZM64.2008 19.9913V17.4639H76.9923V19.9913H64.2008ZM87.1763 27.9169C85.8484 27.9169 84.7373 27.6898 83.8411 27.2348C82.945 26.7695 82.2648 26.159 81.8004 25.4044C81.3488 24.6446 81.1139 23.7757 81.1211 22.8919C81.1211 22.0441 81.2812 21.2997 81.6013 20.6585C81.9223 20.0174 82.3979 19.4749 83.0288 19.03C83.6588 18.575 84.4339 18.2084 85.3514 17.9292C86.2424 17.6917 87.145 17.5001 88.0556 17.355C89.0616 17.1894 90.1187 17.0349 91.2242 16.8898C92.3408 16.7446 93.4473 16.6004 94.5425 16.4552L93.2816 17.1066C93.304 15.7945 93.0053 14.8221 92.3855 14.1912C91.7769 13.55 90.7263 13.2299 89.2337 13.2299C88.2939 13.2299 87.4303 13.4365 86.6449 13.8496C85.8595 14.2535 85.3124 14.9254 85.0025 15.8662L81.7679 14.9356C82.1839 13.5344 83.0757 12.3224 84.2897 11.5084C85.5394 10.6606 87.1986 10.2363 89.2663 10.2363C90.8706 10.2363 92.2636 10.495 93.4473 11.0115C94.6421 11.5186 95.5159 12.3245 96.0686 13.4309C96.3562 13.9799 96.533 14.5578 96.6 15.1682C96.6661 15.7787 96.6996 16.4347 96.6996 17.1382V27.4516H93.6297V23.6205L94.2271 24.1174C93.4864 25.3988 92.54 26.3554 91.3898 26.9863C90.2508 27.607 88.8466 27.9169 87.1763 27.9169ZM87.7904 25.2648C88.774 25.2648 89.6208 25.1047 90.328 24.7837C91.0362 24.4533 91.6057 24.0346 92.0375 23.5274C92.4683 23.0212 92.7503 22.4945 92.8834 21.9455C93.0792 21.4081 93.1858 20.8423 93.1988 20.2705C93.2314 19.6507 93.2481 19.1538 93.2481 18.7816L94.3769 19.1696C93.3815 19.311 92.3858 19.4506 91.3898 19.5884C90.4946 19.7121 89.6813 19.8368 88.9518 19.9606C88.3017 20.0591 87.6587 20.199 87.0264 20.3794C86.5823 20.5206 86.1541 20.7077 85.7488 20.9377C85.4039 21.137 85.1046 21.4065 84.8703 21.7287C84.66 22.0385 84.554 22.4163 84.554 22.8611C84.554 23.2948 84.6712 23.6986 84.9029 24.0709C85.1356 24.4329 85.4892 24.7223 85.9647 24.9391C86.4402 25.1559 87.0488 25.2648 87.7904 25.2648ZM101.339 27.4516V4.65297H104.807V27.4516H101.339ZM110.121 7.95644V4.80837H113.588V7.95644H110.121ZM110.121 27.4516V10.7016H113.588V27.4516H110.121ZM116.58 27.4516L123.282 18.9835L116.729 10.7016H120.844L125.307 16.4552L129.719 10.7016H133.834L127.28 18.9835L134 27.4516H129.869L125.307 21.5118L120.711 27.4516H116.58Z" fill="white"/>
</svg>
