<svg width="43" height="20" viewBox="0 0 43 20" fill="none" xmlns="http://www.w3.org/2000/svg">
<path d="M0 5.51V0.138C0.241 0.168 0.743 0.246 0.743 0.246C2.973 0.62 5.682 1.517 8.186 3.51C8.25273 3.56384 8.30793 3.63058 8.34829 3.70622C8.38865 3.78187 8.41335 3.86488 8.42091 3.95029C8.42847 4.0357 8.41874 4.12175 8.39229 4.20332C8.36585 4.28488 8.32324 4.36028 8.267 4.425L5.685 7.477C5.442 7.766 5.005 7.795 4.705 7.563C3.145 6.353 1.467 5.775 0 5.51ZM0 19.862V14.49C1.994 14.13 4.379 13.189 6.334 10.87C6.851 10.257 7.356 9.643 7.855 9.036C9.623 6.885 11.309 4.833 13.137 3.316C15.43 1.413 17.98 0 21.5 0C25.02 0 27.57 1.413 29.863 3.316C30.747 4.05 31.598 4.909 32.441 5.843L32.537 5.729C35.57 2.132 39.327 0.737 42.257 0.246C42.511 0.204 42.759 0.168 43 0.138V5.51C41.006 5.87 38.621 6.811 36.666 9.13C36.422 9.42 36.18 9.71 35.94 10C36.18 10.29 36.422 10.58 36.666 10.87C38.621 13.189 41.006 14.13 43 14.49V19.862C42.759 19.832 42.51 19.796 42.257 19.754C39.327 19.264 35.57 17.868 32.537 14.271C31.9308 13.5504 31.3292 12.8261 30.732 12.098C29.052 10.058 27.806 8.546 26.406 7.384C25.055 6.262 23.581 5.329 21.5 5.329C19.42 5.329 17.946 6.262 16.594 7.384C15.724 8.106 14.913 8.964 14.02 10C14.913 11.036 15.724 11.894 16.594 12.616C17.946 13.739 19.419 14.671 21.5 14.671C23.58 14.671 25.055 13.739 26.406 12.616L26.546 12.498C26.6159 12.4371 26.6972 12.3906 26.7852 12.3613C26.8731 12.3319 26.966 12.3202 27.0585 12.3269C27.151 12.3336 27.2412 12.3585 27.324 12.4003C27.4068 12.442 27.4806 12.4997 27.541 12.57C28.373 13.57 29.233 14.588 30.13 15.558C30.1902 15.6215 30.237 15.6965 30.2675 15.7785C30.2981 15.8604 30.3117 15.9478 30.3077 16.0352C30.3037 16.1226 30.2821 16.2082 30.2442 16.2871C30.2062 16.3659 30.1528 16.4363 30.087 16.494L29.863 16.684C27.57 18.587 25.02 20 21.5 20C17.98 20 15.43 18.587 13.137 16.684C12.253 15.95 11.402 15.091 10.559 14.157L10.463 14.271C7.43 17.868 3.673 19.263 0.743 19.754C0.489 19.796 0.241 19.832 0 19.862Z" fill="#4D3D31" fill-opacity="0.2"/>
</svg>
