<svg width="134" height="34" viewBox="0 0 134 34" fill="none" xmlns="http://www.w3.org/2000/svg">
<g clip-path="url(#clip0_6_3467)">
<path d="M21.6223 10.4995C23.329 10.7256 25.0933 9.95973 26.1355 8.3536C27.6216 6.06164 27.0726 2.92659 24.9091 1.35116C22.7446 -0.224267 19.7836 0.357331 18.2975 2.64929C17.2562 4.25543 17.2134 6.27473 18.0248 7.88087C18.2547 8.33684 18.2835 8.89611 18.0081 9.32137C17.6991 9.79689 17.1138 9.95787 16.5973 9.77455C13.065 8.51365 9.03193 9.81922 6.81721 13.2353C4.14 17.3614 5.12825 23.0043 9.02262 25.8397C12.0693 28.0562 15.9925 27.8999 18.8372 25.7522C19.349 25.366 20.0395 25.3027 20.5569 25.6796C21.0147 26.0127 21.2157 26.6083 21.1859 27.1946C21.0929 29.0575 21.8894 30.9261 23.4472 32.0604C25.8275 33.7931 29.0835 33.1529 30.7185 30.632C32.3544 28.1102 31.7514 24.6616 29.3702 22.9289C27.4746 21.5489 25.0226 21.6736 23.2769 23.0564C22.927 23.3327 22.4468 23.3886 22.0858 23.1271C21.7061 22.8498 21.5888 22.3156 21.7666 21.8653C22.9986 18.7526 22.4785 15.1643 20.4657 12.5895C20.1186 12.1456 20.0506 11.5082 20.3596 11.0327C20.635 10.6074 21.1385 10.4352 21.6223 10.4995ZM1.44325 29.0827C2.95819 30.1854 5.03054 29.7778 6.0709 28.1735C7.11219 26.5692 6.72787 24.374 5.21293 23.2723C3.69798 22.1696 1.62657 22.5762 0.585277 24.1805C-0.455085 25.7857 -0.0716956 27.9799 1.44325 29.0827ZM39.0833 27.9167V5.58333H42.5505V15.2146H54.4961V5.58333H57.9801V27.9167H54.4961V18.2696H42.5505V27.9167H39.0833ZM70.5882 28.3819C68.8071 28.3819 67.2419 28.02 65.8926 27.296C64.5829 26.59 63.4966 25.5318 62.7566 24.241C62.0159 22.928 61.6455 21.4084 61.6455 19.6812C61.6455 17.8508 62.0103 16.2642 62.7408 14.9196C63.4507 13.6072 64.5214 12.5255 65.8265 11.8022C67.1423 11.068 68.674 10.7014 70.4225 10.7014C72.2464 10.7014 73.8005 11.0997 75.0846 11.8953C76.3669 12.6816 77.3235 13.8029 77.9545 15.2611C78.5965 16.7193 78.8506 18.4511 78.7175 20.4564H75.2503V19.2783C75.2279 17.3335 74.8297 15.8967 74.0554 14.9661C73.2924 14.0356 72.1255 13.5703 70.5547 13.5703C68.8183 13.5703 67.5136 14.0821 66.6398 15.1057C65.7651 16.1293 65.3287 17.6089 65.3287 19.5417C65.3287 21.3823 65.766 22.8088 66.6398 23.8222C67.5136 24.8254 68.7745 25.3269 70.4225 25.3269C71.5057 25.3269 72.4409 25.0989 73.2263 24.6439C74.0219 24.1786 74.6417 23.5179 75.0837 22.659L78.4858 23.6668C77.8195 25.1324 76.7112 26.3526 75.3163 27.1564C73.901 27.9734 72.3246 28.3819 70.5882 28.3819ZM64.2008 20.4564V17.929H76.9923V20.4564H64.2008ZM87.1763 28.3819C85.8484 28.3819 84.7373 28.1549 83.8411 27.6998C82.945 27.2346 82.2648 26.6241 81.8004 25.8694C81.3488 25.1097 81.1139 24.2408 81.1211 23.3569C81.1211 22.5092 81.2812 21.7648 81.6013 21.1236C81.9223 20.4825 82.3979 19.9399 83.0288 19.4951C83.6588 19.0401 84.4339 18.6735 85.3514 18.3943C86.2424 18.1568 87.145 17.9652 88.0556 17.8201C89.0616 17.6545 90.1187 17.5 91.2242 17.3549C92.3408 17.2097 93.4473 17.0655 94.5425 16.9203L93.2816 17.5717C93.304 16.2596 93.0053 15.2872 92.3855 14.6562C91.7769 14.0151 90.7263 13.695 89.2337 13.695C88.2939 13.695 87.4303 13.9016 86.6449 14.3147C85.8595 14.7186 85.3124 15.3905 85.0025 16.3312L81.7679 15.4007C82.1839 13.9995 83.0757 12.7875 84.2897 11.9735C85.5394 11.1257 87.1986 10.7014 89.2663 10.7014C90.8706 10.7014 92.2636 10.9601 93.4473 11.4765C94.6421 11.9837 95.5159 12.7896 96.0686 13.896C96.3562 14.445 96.533 15.0229 96.6 15.6333C96.6661 16.2438 96.6996 16.8998 96.6996 17.6033V27.9167H93.6297V24.0856L94.2271 24.5825C93.4864 25.8639 92.54 26.8205 91.3898 27.4514C90.2508 28.0721 88.8466 28.3819 87.1763 28.3819ZM87.7904 25.7299C88.774 25.7299 89.6208 25.5698 90.328 25.2488C91.0362 24.9184 91.6057 24.4997 92.0375 23.9925C92.4683 23.4863 92.7503 22.9596 92.8834 22.4106C93.0792 21.8732 93.1858 21.3074 93.1988 20.7356C93.2314 20.1158 93.2481 19.6189 93.2481 19.2467L94.3769 19.6347C93.3815 19.7761 92.3858 19.9157 91.3898 20.0535C90.4946 20.1772 89.6813 20.3019 88.9518 20.4257C88.3017 20.5242 87.6587 20.6641 87.0264 20.8444C86.5823 20.9857 86.1541 21.1728 85.7488 21.4028C85.4039 21.6021 85.1046 21.8716 84.8703 22.1937C84.66 22.5036 84.554 22.8814 84.554 23.3262C84.554 23.7599 84.6712 24.1637 84.9029 24.536C85.1356 24.8979 85.4892 25.1873 85.9647 25.4042C86.4402 25.621 87.0488 25.7299 87.7904 25.7299ZM101.339 27.9167V5.11805H104.807V27.9167H101.339ZM110.121 8.42153V5.27346H113.588V8.42153H110.121ZM110.121 27.9167V11.1667H113.588V27.9167H110.121ZM116.58 27.9167L123.282 19.4486L116.729 11.1667H120.844L125.307 16.9203L129.719 11.1667H133.834L127.28 19.4486L134 27.9167H129.869L125.307 21.9769L120.711 27.9167H116.58Z" fill="#0A0A0A"/>
</g>
<defs>
<clipPath id="clip0_6_3467">
<rect width="134" height="33.5" fill="white"/>
</clipPath>
</defs>
</svg>
