<svg width="68" height="17" viewBox="0 0 68 17" fill="none" xmlns="http://www.w3.org/2000/svg">
<path d="M10.9725 5.09207C11.8386 5.20682 12.7339 4.81818 13.2628 4.00312C14.017 2.84004 13.7383 1.24912 12.6404 0.449651C11.542 -0.349822 10.0394 -0.0546829 9.28529 1.1084C8.75687 1.92346 8.73515 2.94818 9.14693 3.76324C9.26357 3.99462 9.2782 4.27843 9.13842 4.49424C8.98165 4.73554 8.68462 4.81724 8.42254 4.72421C6.62998 4.08435 4.58337 4.74687 3.45948 6.4804C2.1009 8.57424 2.6024 11.4378 4.57865 12.8767C6.1247 14.0015 8.11559 13.9222 9.55918 12.8323C9.8189 12.6363 10.1693 12.6042 10.4318 12.7954C10.6642 12.9645 10.7662 13.2667 10.7511 13.5642C10.7038 14.5096 11.1081 15.4578 11.8986 16.0335C13.1065 16.9127 14.7588 16.5879 15.5885 15.3086C16.4187 14.0289 16.1127 12.2788 14.9043 11.3995C13.9423 10.6992 12.698 10.7625 11.8121 11.4642C11.6346 11.6045 11.3909 11.6328 11.2077 11.5001C11.015 11.3594 10.9555 11.0883 11.0457 10.8598C11.671 9.28021 11.407 7.45932 10.3856 6.15268C10.2094 5.92743 10.175 5.60396 10.3317 5.36265C10.4715 5.14685 10.727 5.05949 10.9725 5.09207ZM0.732395 14.5223C1.50117 15.0819 2.55281 14.8751 3.08076 14.061C3.60917 13.2469 3.41415 12.1329 2.64537 11.5738C1.87659 11.0142 0.825423 11.2206 0.297006 12.0347C-0.230938 12.8493 -0.0363829 13.9628 0.732395 14.5223ZM19.8333 13.9307V2.59732H21.5928V7.48482H27.6547V2.59732H29.4227V13.9307H27.6547V9.03512H21.5928V13.9307H19.8333ZM35.8209 14.1668C34.917 14.1668 34.1228 13.9831 33.438 13.6157C32.7734 13.2574 32.2222 12.7204 31.8467 12.0654C31.4708 11.3991 31.2828 10.6279 31.2828 9.75149C31.2828 8.82263 31.4679 8.01749 31.8386 7.33513C32.1989 6.66914 32.7422 6.12019 33.4045 5.75318C34.0722 5.3806 34.8495 5.19454 35.7368 5.19454C36.6624 5.19454 37.451 5.39665 38.1027 5.8004C38.7534 6.19943 39.2388 6.76846 39.559 7.50843C39.8848 8.2484 40.0137 9.12721 39.9462 10.1448H38.1867V9.54701C38.1754 8.56007 37.9733 7.83096 37.5804 7.35874C37.1932 6.88651 36.601 6.6504 35.8039 6.6504C34.9227 6.6504 34.2607 6.91013 33.8172 7.42957C33.3733 7.94901 33.1519 8.69985 33.1519 9.68065C33.1519 10.6147 33.3738 11.3386 33.8172 11.8529C34.2607 12.3619 34.9005 12.6165 35.7368 12.6165C36.2865 12.6165 36.7611 12.5008 37.1596 12.2698C37.5634 12.0337 37.8779 11.6985 38.1022 11.2626L39.8286 11.774C39.4905 12.5177 38.9281 13.137 38.2202 13.5448C37.502 13.9595 36.702 14.1668 35.8209 14.1668ZM32.5795 10.1448V8.86229H39.0707V10.1448H32.5795ZM44.2387 14.1668C43.5648 14.1668 43.001 14.0515 42.5463 13.8206C42.0915 13.5845 41.7463 13.2747 41.5107 12.8918C41.2815 12.5062 41.1623 12.0653 41.166 11.6168C41.166 11.1866 41.2472 10.8088 41.4096 10.4834C41.5725 10.1581 41.8139 9.88276 42.134 9.65704C42.4537 9.42613 42.8471 9.24007 43.3127 9.0984C43.7648 8.97789 44.2229 8.88064 44.685 8.80704C45.1954 8.72299 45.7319 8.6446 46.2929 8.57093C46.8595 8.49726 47.421 8.42407 47.9768 8.3504L47.337 8.68096C47.3483 8.01513 47.1967 7.52165 46.8822 7.20149C46.5734 6.87613 46.0402 6.71368 45.2828 6.71368C44.8059 6.71368 44.3676 6.81851 43.9691 7.02818C43.5705 7.23313 43.2929 7.57407 43.1356 8.05149L41.4942 7.57926C41.7053 6.86823 42.1578 6.25314 42.7739 5.84007C43.4081 5.40987 44.25 5.19454 45.2993 5.19454C46.1134 5.19454 46.8204 5.32582 47.421 5.5879C48.0274 5.84526 48.4708 6.25421 48.7513 6.81568C48.8972 7.09429 48.9869 7.38754 49.0209 7.69732C49.0544 8.0071 49.0714 8.34001 49.0714 8.69701V13.9307H47.5136V11.9865L47.8167 12.2387C47.4409 12.8889 46.9606 13.3744 46.3769 13.6945C45.7989 14.0095 45.0864 14.1668 44.2387 14.1668ZM44.5504 12.8209C45.0495 12.8209 45.4792 12.7397 45.8381 12.5768C46.1975 12.4092 46.4865 12.1967 46.7056 11.9393C46.9242 11.6824 47.0673 11.4151 47.1349 11.1365C47.2343 10.8638 47.2883 10.5767 47.2949 10.2865C47.3115 9.97202 47.32 9.71985 47.32 9.53096L47.8928 9.72788C47.3876 9.79964 46.8823 9.87047 46.3769 9.94038C45.9227 10.0032 45.5099 10.0665 45.1397 10.1293C44.8098 10.1792 44.4835 10.2502 44.1627 10.3418C43.9373 10.4134 43.72 10.5084 43.5143 10.6251C43.3393 10.7263 43.1874 10.863 43.0685 11.0265C42.9618 11.1837 42.908 11.3755 42.908 11.6012C42.908 11.8212 42.9675 12.0262 43.0851 12.2151C43.2031 12.3988 43.3826 12.5456 43.6239 12.6557C43.8652 12.7657 44.174 12.8209 44.5504 12.8209ZM51.4259 13.9307V2.36121H53.1854V13.9307H51.4259ZM55.8823 4.0376V2.44007H57.6418V4.0376H55.8823ZM55.8823 13.9307V5.43065H57.6418V13.9307H55.8823ZM59.16 13.9307L62.5609 9.63343L59.2356 5.43065H61.3237L63.5885 8.3504L65.8278 5.43065H67.9159L64.5901 9.63343L68 13.9307H65.9038L63.5885 10.9165L61.2562 13.9307H59.16Z" fill="#090909"/>
</svg>
